<mxfile host="app.diagrams.net" agent="Mozilla/5.0 (Windows NT 10.0; Win64; x64) AppleWebKit/537.36 (KHTML, like Gecko) Chrome/140.0.0.0 Safari/537.36" version="28.2.5">
  <diagram name="Page-1" id="wEf1DnQp3OhV0kBB79Ji">
    <mxGraphModel dx="872" dy="439" grid="0" gridSize="10" guides="0" tooltips="1" connect="0" arrows="0" fold="1" page="0" pageScale="1" pageWidth="1100" pageHeight="850" background="light-dark(#FFFFFF,#FFFFFF)" math="0" shadow="0">
      <root>
        <object label="" id="0">
          <mxCell />
        </object>
        <mxCell id="1" parent="0" />
        <mxCell id="PucChCGIMql7dMYhp_ww-40" value="Costs" style="shape=table;startSize=30;container=1;collapsible=0;childLayout=tableLayout;strokeColor=#FF6392;fontSize=17;fillColor=#FFE45E;fontColor=#5AA9E6;swimlaneFillColor=default;fontStyle=1;sketch=1;curveFitting=1;jiggle=2;labelBackgroundColor=none;" vertex="1" parent="1">
          <mxGeometry x="270" y="70" width="340" height="280" as="geometry" />
        </mxCell>
        <mxCell id="PucChCGIMql7dMYhp_ww-41" value="" style="shape=tableRow;horizontal=0;startSize=0;swimlaneHead=0;swimlaneBody=0;strokeColor=#FF6392;top=0;left=0;bottom=0;right=0;collapsible=0;dropTarget=0;fillColor=none;points=[[0,0.5],[1,0.5]];portConstraint=eastwest;fontSize=16;sketch=1;curveFitting=1;jiggle=2;labelBackgroundColor=none;fontColor=#5AA9E6;" vertex="1" parent="PucChCGIMql7dMYhp_ww-40">
          <mxGeometry y="30" width="340" height="57" as="geometry" />
        </mxCell>
        <mxCell id="PucChCGIMql7dMYhp_ww-42" value="&lt;font style=&quot;font-size: 17px;&quot;&gt;pk&lt;/font&gt;" style="shape=partialRectangle;html=1;whiteSpace=wrap;connectable=0;strokeColor=#FF6392;overflow=hidden;fillColor=none;top=0;left=0;bottom=0;right=0;pointerEvents=1;fontSize=16;sketch=1;curveFitting=1;jiggle=2;labelBackgroundColor=none;fontColor=#5AA9E6;" vertex="1" parent="PucChCGIMql7dMYhp_ww-41">
          <mxGeometry width="81" height="57" as="geometry">
            <mxRectangle width="81" height="57" as="alternateBounds" />
          </mxGeometry>
        </mxCell>
        <mxCell id="PucChCGIMql7dMYhp_ww-44" value="&lt;u&gt;&lt;font style=&quot;font-size: 17px;&quot;&gt;id&lt;/font&gt;&lt;/u&gt;" style="shape=partialRectangle;html=1;whiteSpace=wrap;connectable=0;strokeColor=#FF6392;overflow=hidden;fillColor=none;top=0;left=0;bottom=0;right=0;pointerEvents=1;fontSize=16;container=1;sketch=1;curveFitting=1;jiggle=2;labelBackgroundColor=none;fontColor=#5AA9E6;" vertex="1" parent="PucChCGIMql7dMYhp_ww-41">
          <mxGeometry x="81" width="259" height="57" as="geometry">
            <mxRectangle width="259" height="57" as="alternateBounds" />
          </mxGeometry>
        </mxCell>
        <mxCell id="PucChCGIMql7dMYhp_ww-45" value="" style="shape=tableRow;horizontal=0;startSize=0;swimlaneHead=0;swimlaneBody=0;top=0;left=0;bottom=0;right=0;collapsible=0;dropTarget=0;fillColor=none;points=[[0,0.5],[1,0.5]];portConstraint=eastwest;fontSize=16;shadow=1;rounded=1;strokeColor=#FF6392;sketch=1;curveFitting=1;jiggle=2;labelBackgroundColor=none;fontColor=#5AA9E6;" vertex="1" parent="PucChCGIMql7dMYhp_ww-40">
          <mxGeometry y="87" width="340" height="100" as="geometry" />
        </mxCell>
        <mxCell id="PucChCGIMql7dMYhp_ww-46" value="&lt;font style=&quot;font-size: 17px;&quot;&gt;string&lt;/font&gt;" style="shape=partialRectangle;html=1;whiteSpace=wrap;connectable=0;strokeColor=#FF6392;overflow=hidden;fillColor=none;top=0;left=0;bottom=0;right=0;pointerEvents=1;fontSize=16;sketch=1;curveFitting=1;jiggle=2;labelBackgroundColor=none;fontColor=#5AA9E6;" vertex="1" parent="PucChCGIMql7dMYhp_ww-45">
          <mxGeometry width="81" height="100" as="geometry">
            <mxRectangle width="81" height="100" as="alternateBounds" />
          </mxGeometry>
        </mxCell>
        <mxCell id="PucChCGIMql7dMYhp_ww-47" value="&lt;font style=&quot;font-size: 17px;&quot;&gt;description&lt;/font&gt;" style="shape=partialRectangle;html=1;whiteSpace=wrap;connectable=0;overflow=hidden;fillColor=none;top=0;left=0;bottom=0;right=0;pointerEvents=1;fontSize=16;shadow=0;strokeColor=#FF6392;sketch=1;curveFitting=1;jiggle=2;labelBackgroundColor=none;fontColor=#5AA9E6;" vertex="1" parent="PucChCGIMql7dMYhp_ww-45">
          <mxGeometry x="81" width="259" height="100" as="geometry">
            <mxRectangle width="259" height="100" as="alternateBounds" />
          </mxGeometry>
        </mxCell>
        <mxCell id="PucChCGIMql7dMYhp_ww-49" value="" style="shape=tableRow;horizontal=0;startSize=0;swimlaneHead=0;swimlaneBody=0;strokeColor=#FF6392;top=0;left=0;bottom=0;right=0;collapsible=0;dropTarget=0;fillColor=none;points=[[0,0.5],[1,0.5]];portConstraint=eastwest;fontSize=16;sketch=1;curveFitting=1;jiggle=2;labelBackgroundColor=none;fontColor=#5AA9E6;" vertex="1" parent="PucChCGIMql7dMYhp_ww-40">
          <mxGeometry y="187" width="340" height="93" as="geometry" />
        </mxCell>
        <mxCell id="PucChCGIMql7dMYhp_ww-50" value="&lt;font style=&quot;font-size: 17px;&quot;&gt;float&lt;/font&gt;" style="shape=partialRectangle;html=1;whiteSpace=wrap;connectable=0;strokeColor=#FF6392;overflow=hidden;fillColor=none;top=0;left=0;bottom=0;right=0;pointerEvents=1;fontSize=16;sketch=1;curveFitting=1;jiggle=2;labelBackgroundColor=none;fontColor=#5AA9E6;" vertex="1" parent="PucChCGIMql7dMYhp_ww-49">
          <mxGeometry width="81" height="93" as="geometry">
            <mxRectangle width="81" height="93" as="alternateBounds" />
          </mxGeometry>
        </mxCell>
        <mxCell id="PucChCGIMql7dMYhp_ww-51" value="&lt;font style=&quot;font-size: 17px;&quot;&gt;amount&lt;/font&gt;" style="shape=partialRectangle;html=1;whiteSpace=wrap;connectable=0;strokeColor=#FF6392;overflow=hidden;fillColor=none;top=0;left=0;bottom=0;right=0;pointerEvents=1;fontSize=16;sketch=1;curveFitting=1;jiggle=2;labelBackgroundColor=none;fontColor=#5AA9E6;" vertex="1" parent="PucChCGIMql7dMYhp_ww-49">
          <mxGeometry x="81" width="259" height="93" as="geometry">
            <mxRectangle width="259" height="93" as="alternateBounds" />
          </mxGeometry>
        </mxCell>
      </root>
    </mxGraphModel>
  </diagram>
</mxfile>
